<svg height="512pt" viewBox="0 0 512 512" width="512pt" xmlns="http://www.w3.org/2000/svg"><g fill="#97a1f0"><path d="m373.902344 209.382812-21.261719 21.191407-32.925781-33.027344-44.339844-44.480469 21.261719-21.191406 44.320312 44.460938zm0 0"/><path d="m423.027344 160.410156-21.261719 21.1875-32.964844-33.066406-44.292969-44.441406 21.25-21.1875 44.28125 44.417968zm0 0"/><path d="m182.339844 405.277344-21.25 21.191406-35.207032-35.316406-42.0625-42.191406 21.261719-21.191407 42.039063 42.171875zm0 0"/><path d="m231.464844 356.304688-21.253906 21.191406-35.246094-35.359375-42.019532-42.148438 21.261719-21.191406 41.988281 42.128906zm0 0"/></g><path d="m147.121094 369.941406 35.21875 35.335938-21.25 21.191406-35.207032-35.316406zm0 0" fill="#6d76e7"/><path d="m196.195312 320.925781 35.269532 35.378907-21.253906 21.191406-35.246094-35.359375zm0 0" fill="#6d76e7"/><path d="m340.957031 176.335938 32.945313 33.046874-21.261719 21.191407-32.925781-33.027344zm0 0" fill="#6d76e7"/><path d="m423.027344 160.410156-21.261719 21.1875-32.964844-33.066406 21.238281-21.210938zm0 0" fill="#6d76e7"/><path d="m512 190.503906-103.289062 102.96875c-23.984376 23.902344-55.867188 37.058594-89.804688 37.058594h-.199219c-34.019531-.050781-65.933593-13.316406-89.894531-37.339844l-2.421875-2.429687-7.875-7.902344c-13.476563-13.527344-35.4375-13.558594-48.953125-.082031l-104.199219 103.863281-65.363281-65.5625 104.191406-103.871094c23.980469-23.902343 55.867188-37.058593 89.804688-37.058593h.199218c34.015626.050781 65.933594 13.316406 89.894532 37.335937l7.8125 7.84375 2.480468 2.492187c6.515626 6.535157 15.207032 10.144532 24.460938 10.15625h.0625c9.234375 0 17.917969-3.570312 24.429688-10.074218l103.292968-102.972656zm0 0" fill="#1020a1"/><path d="m512 190.503906-103.289062 102.96875c-23.984376 23.902344-55.867188 37.058594-89.804688 37.058594h-.199219c-34.019531-.050781-65.933593-13.316406-89.894531-37.339844l-2.421875-2.429687 65.511719-65.433594 2.480468 2.492187c6.515626 6.535157 15.207032 10.144532 24.460938 10.15625h.0625c9.234375 0 17.917969-3.570312 24.429688-10.074218l103.292968-102.972656zm0 0" fill="#081476"/><path d="m294.382812 227.820312c49.523438 49.675782 49.394532 130.375-.277343 179.898438l-104.191407 103.859375-65.375-65.570313 104.203126-103.859374c13.515624-13.476563 13.546874-35.4375.070312-48.957032l-2.421875-2.429687-7.875-7.902344c-23.960937-24.03125-37.117187-56-37.066406-90.003906.050781-34.019531 13.316406-65.933594 37.347656-89.894531l103.289063-102.960938 65.363281 65.5625-103.289063 102.96875c-6.535156 6.515625-10.136718 15.207031-10.15625 24.464844-.011718 9.261718 3.570313 17.957031 10.085938 24.488281l7.8125 7.84375zm0 0" fill="#fcbe00"/><path d="m294.105469 407.71875-104.191407 103.859375-65.375-65.570313 104.203126-103.859374c13.515624-13.476563 13.546874-35.4375.070312-48.957032l-2.421875-2.429687 65.511719-65.433594 2.480468 2.492187c49.523438 49.675782 49.394532 130.375-.277343 179.898438zm0 0" fill="#ff9e00"/></svg>