<svg height="512pt" viewBox="0 0 512 512" width="512pt" xmlns="http://www.w3.org/2000/svg"><path d="m512 190.507812-65.367188-65.574218-29.578124 29.488281-59.179688-59.363281 29.578125-29.488282-65.363281-65.570312-103.292969 102.96875c-21.144531 21.078125-33.949219 48.328125-36.753906 77.742188-29.417969 2.714843-56.707031 15.425781-77.847657 36.5l-104.195312 103.863281 65.367188 65.570312 28.097656-28.011719 59.179687 59.367188-28.097656 28.011719 65.363281 65.566406 104.199219-103.863281c21.742187-21.675782 33.992187-49.324219 36.738281-77.730469 29.421875-2.714844 56.714844-15.429687 77.859375-36.511719zm-116.203125-14.894531-27.867187 27.777344-59.179688-59.363281 27.867188-27.78125zm-76.949219 62.367188c-9.257812-.015625-17.945312-3.621094-24.460937-10.152344l-10.300781-10.335937c-6.515626-6.53125-10.09375-15.230469-10.078126-24.492188.015626-9.261719 3.621094-17.945312 10.152344-24.460938l3.332032-3.320312 59.179687 59.367188-3.332031 3.320312c-6.519532 6.496094-15.195313 10.074219-24.433594 10.074219zm-90.105468 104.164062-5.714844 5.695313-59.179688-59.363282 5.714844-5.695312c13.515625-13.472656 35.476562-13.441406 48.953125.078125l10.300781 10.332031c13.476563 13.519532 13.441406 35.480469-.074218 48.953125zm-186.292969-21.003906 82.9375-82.671875c15.621093-15.574219 35.644531-25.164062 57.289062-27.648438 1.535157 11.0625 4.496094 21.78125 8.796875 31.933594-15.664062.605469-31.148437 6.855469-43.101562 18.769532l-82.9375 82.675781zm72.273437 16.304687 27.871094-27.78125 59.179688 59.367188-27.871094 27.78125zm158.195313 49.015626-82.9375 82.675781-22.988281-23.058594 82.9375-82.675781c25.238281-25.160156 25.304687-66.160156.144531-91.402344l-10.304688-10.332031c-18.292969-18.351563-28.34375-42.773438-28.304687-68.765625.042968-25.992188 10.167968-50.382813 28.519531-68.675782l82.035156-81.777343 22.988281 23.054687-82.039062 81.777344c-12.210938 12.175781-18.949219 28.394531-18.976562 45.671875-.027344 17.277344 6.664062 33.519531 18.835937 45.726563l10.300781 10.335937c37.835938 37.953125 37.742188 99.609375-.210937 137.445313zm57.289062-86.585938c-1.523437-10.910156-4.46875-21.652344-8.816406-31.941406 16.304687-.609375 31.542969-7.210938 43.140625-18.773438l82.035156-81.777344 22.988282 23.058594-82.035157 81.777344c-15.628906 15.578125-35.660156 25.171875-57.3125 27.65625zm0 0"/></svg>